PathFileType	4	(X/Y/Z)	Patient4_TMGait_0pt5_02_right_14.trc.trc
DataRate	CameraRate	NumFrames	NumMarkers	Units	OrigDataRate	OrigDataStartFrame	OrigNumFrames
77.777777777778	77.777777777778	4	33	mm	77.777777777778	1	       141
Frame#	Time	Sacral			L.Shoulder			Chest			R.Shoulder			Neck			R.ASIS			L.ASIS			R.Thigh.Superior			R.Thigh.Lateral			R.Thigh.Inferior			R.Patella			L.Thigh.Superior			L.Thigh.Lateral			L.Thigh.Inferior			L.Patella			L.Shank.Superior			L.Shank.Lateral			L.Shank.Inferior			R.Shank.Superior			R.Shank.Lateral			R.Shank.Inferior			R.Heel			R.Midfoot.Superior			R.Midfoot.Lateral			R.Toe			L.Heel			L.Midfoot.Lateral			L.Midfoot.Superior			L.Toe			L.Elbow			L.Wrist			R.Elbow			R.Wrist			
		X1	Y1	Z1	X2	Y2	Z2	X3	Y3	Z3	X4	Y4	Z4	X5	Y5	Z5	X6	Y6	Z6	X7	Y7	Z7	X8	Y8	Z8	X9	Y9	Z9	X10	Y10	Z10	X11	Y11	Z11	X12	Y12	Z12	X13	Y13	Z13	X14	Y14	Z14	X15	Y15	Z15	X16	Y16	Z16	X17	Y17	Z17	X18	Y18	Z18	X19	Y19	Z19	X20	Y20	Z20	X21	Y21	Z21	X22	Y22	Z22	X23	Y23	Z23	X24	Y24	Z24	X25	Y25	Z25	X26	Y26	Z26	X27	Y27	Z27	X28	Y28	Z28	X29	Y29	Z29	X30	Y30	Z30	X31	Y31	Z31	X32	Y32	Z32	X33	Y33	Z33	

1	18.330000000000	606.897639949425	1013.594726814755	457.406896847946	804.514716512711	1435.831473465021	280.974989270012	895.820822426090	1362.689374815401	448.045364092002	805.097350257032	1438.812496116265	618.917132983194	796.846943089724	1498.062603345281	431.545147999813	826.986326178319	945.950578437478	584.107745662336	829.544203134629	961.050556759391	308.368293033879	901.602953256001	768.358728544759	563.163183182710	849.369901407006	650.644987015251	633.299958116799	941.373160821161	604.051551984074	560.608774238248	949.951279172750	488.784799254424	583.979879906809	870.884770046761	750.770367687586	338.498779391381	782.084732329326	635.994379562179	282.925090632211	865.743825537458	558.074787562322	347.290497592292	865.623145974919	487.122557866689	358.964383499942	836.218374719632	415.514881066323	352.481114450510	745.324895941558	303.429995756689	300.544152084466	788.365416290494	192.260378923406	375.532067069475	867.537826474003	420.639915543116	586.700776040764	741.547462294137	392.809630133426	643.312175748356	717.048179462671	286.488246796536	592.413995957878	511.473032214496	249.198623296118	561.491096950076	671.709879470981	169.670541346840	600.586569393463	561.566529722159	178.814981842015	632.081457229365	722.656399785204	49.406575607667	622.325926845364	652.423425312025	39.154857183827	415.674539984383	728.777645940193	35.559170042373	337.497755426646	812.149317712682	95.473405358934	366.157868958788	940.795156355016	40.415357844488	342.094571960771	823.187878445306	1089.007913322836	141.408194913583	1007.135877130449	902.281296907483	135.189865554335	708.072195384142	1102.464079801886	727.142485818699	722.212662384748	841.067157156037	731.990851361581	
2	18.342857142857	605.234893389184	1014.562129262825	456.588350211950	805.609852175748	1436.123402896826	280.899366567515	895.205806461620	1363.102786821593	448.837306709781	803.088035642923	1439.758973042121	618.452486007852	796.632634270541	1498.565117086596	431.261447597232	824.962282726273	947.001577895316	584.508606506115	828.302928355737	961.396847763998	308.926777480396	901.873890107555	772.258938529941	562.822444370811	852.629479332593	653.828422595424	633.677219355294	945.058118040809	608.837368806292	560.582156336887	956.446808714461	493.986550249401	584.174508992295	867.725913602249	750.025747577168	339.211848250241	777.718364842754	636.328833482942	283.142408845028	859.923368462818	557.467923719372	347.910665501365	858.820570963156	486.810572060196	359.626025359414	829.629580826305	415.585238197409	352.740083756720	738.726904652015	303.597232041417	300.543823135456	781.618102454471	192.398882861185	375.662512157473	875.704227865491	423.998815145802	587.147635092474	750.742027034735	392.703740342437	644.028388867182	729.086759844141	285.875792124966	593.333283822866	524.663721636829	242.357533929973	562.736400545513	687.173096197673	167.822566676710	601.448884717015	577.025240508867	173.839451697378	633.466741952403	741.760489313764	49.258224520081	623.449777808633	645.482405819543	39.178520481334	415.581224516591	721.919588903162	35.544593141505	337.441779014951	805.333026890367	95.520265443381	366.087950008451	933.924604063077	40.455722545464	342.084368066040	829.750676074073	1090.628536917164	140.504889647546	1020.489312110602	911.696899970242	134.901625325574	695.991169564497	1107.650005637115	725.940115835849	702.272544534518	846.293497011319	730.882506550313	
3	18.355714285714	603.596338792922	1015.487745819625	455.793470643321	806.690599653247	1436.385126931485	280.841130072271	894.586968687752	1363.494365684585	449.644304104184	801.091374679150	1440.688970227363	618.018906090638	796.406270750620	1499.039925937728	430.991090252229	822.938038918850	948.020819737271	584.938012340776	827.070808161722	961.706474964819	309.522602759197	902.085585949595	776.067487029684	562.527190687800	855.788600638868	656.942676486696	634.075278973056	948.592497611572	613.505307551507	560.568659121643	962.724925316054	499.111887408089	584.406011141854	864.586068776885	749.266567828067	339.975984186308	773.379457768777	636.651724359284	283.362577585999	854.112323441346	556.854883963327	348.543358252037	852.030935975886	486.498632723117	360.289610799410	823.056465002634	415.647012086499	353.004341991013	732.159683470201	303.748481895647	300.546547774058	774.906320142849	192.529551485488	375.798038803448	883.720059984606	427.244107142799	587.628841606445	759.832086794081	392.377675141859	644.792829938413	741.099604915447	285.018186270516	594.290631369804	537.871696784058	235.128879316016	564.072516440955	702.696892491941	165.725211660988	602.367907258723	592.556427712024	168.533274751868	634.929117059822	761.015622694782	48.922052763311	624.615620640498	638.598811152095	39.190883009880	415.495314055585	715.112510106503	35.525063885197	337.389932862746	798.563557271226	95.564829590560	366.025495475435	927.106647174797	40.502385686752	342.077028981270	836.189992102534	1092.211326945740	139.654895144162	1033.608445873231	921.070948356706	134.688316691607	684.154270384460	1112.780920576963	724.738377832105	682.733793644148	851.501065614345	729.792591422519	
4	18.368571428571	602.006754923409	1016.331528751462	455.048870446642	807.747197096255	1436.584336310632	280.827446293084	893.965994682514	1363.834309347010	450.488240047288	799.128548280215	1441.574912114031	617.655939814719	796.164391557579	1499.455777857846	430.759621557374	820.914376196245	948.965423753369	585.429915716694	825.859929422099	961.942384852489	310.192153478090	902.146769950145	779.642088029578	562.337122287516	858.662846281015	659.874081899274	634.526873961739	951.750858294836	617.877736739074	560.604541296568	968.488662762464	504.043571338900	584.714719710481	861.475129019385	748.477451195680	340.833080259120	769.090167374067	636.950489977238	283.587768965040	848.320194084186	556.229199656282	349.195980650361	845.268942976170	486.184204214943	360.951681274787	816.513842556462	415.692674109308	353.276646486839	725.645352547841	303.871779887770	300.554442346831	768.254753111478	192.643311675892	375.941615884165	891.383906655705	430.256159411273	588.186165082786	768.724859247624	391.604160711507	645.663811082757	753.111966635339	283.708120084799	595.335597560058	551.281768377062	227.136122554990	565.577085033166	718.441906252534	163.200631552009	603.413494009436	608.377609812761	162.611160120501	636.541831950281	780.665118157038	48.343706917171	625.888314898450	631.810102634826	39.184861166599	415.423299234483	708.388855062184	35.497977808240	337.345466014684	791.869836023254	95.603946535175	365.976955806691	920.374078219682	40.559814132124	342.075050553083	842.384391293524	1093.710247726051	138.923310274977	1046.247111398743	930.345394394537	134.637735229169	672.831109862866	1117.764101887145	723.552049403458	664.040341041339	856.626657270621	728.750317729593	
